<?xml version="1.0" encoding="utf-8"?>
<!-- Generator: Adobe Illustrator 24.0.0, SVG Export Plug-In . SVG Version: 6.00 Build 0)  -->
<svg version="1.1" id="Layer_1" xmlns="http://www.w3.org/2000/svg" xmlns:xlink="http://www.w3.org/1999/xlink" x="0px" y="0px"
	 viewBox="0 0 150 55" style="enable-background:new 0 0 150 55;" xml:space="preserve">
<style type="text/css">
	.st0{clip-path:url(#SVGID_2_);}
	.st1{fill:#FFFFFF;}
</style>
<g>
	<defs>
		<rect id="SVGID_1_" x="1" y="1.4" width="148" height="52.3"/>
	</defs>
	<clipPath id="SVGID_2_">
		<use xlink:href="#SVGID_1_"  style="overflow:visible;"/>
	</clipPath>
	<g class="st0">
		<path class="st1" d="M1.3,20.1L6.4,1.6h5.9l1.3,10.5l5.2-10.5h4.9l0.5,13.8c0.1,1.8,0.6,3,1.5,3.6c-0.2,0.4-0.6,0.7-1.2,1.1
			c-0.6,0.4-1.3,0.5-2.1,0.5c-0.8,0-1.4-0.1-1.9-0.3c-0.5-0.2-0.8-0.5-1.1-0.9c-0.5-0.7-0.7-1.6-0.7-2.9V7.9l-5.5,12.2H9.6l-2-12.6
			L4.5,20.1H1.3z M32.9,20.7c-4.1,0-6.2-1.9-6.2-5.8c0-2.7,0.8-5,2.3-6.8c1.6-1.9,3.8-2.8,6.6-2.8c2,0,3.5,0.5,4.6,1.4
			c1,0.9,1.5,2.4,1.5,4.3c0,3-0.8,5.3-2.4,7.1C37.7,19.8,35.6,20.7,32.9,20.7z M33.7,8.5C33.4,9,33.2,9.6,33,10.4
			c-0.2,0.7-0.4,1.7-0.6,2.9c-0.2,1.2-0.3,2.5-0.3,4c0,0.5,0.1,0.9,0.2,1.2c0.2,0.3,0.5,0.5,0.9,0.5c0.4,0,0.8-0.1,1-0.3
			c0.3-0.2,0.5-0.5,0.7-1c0.4-0.9,0.7-2.1,1-3.7c0.3-1.6,0.5-2.7,0.5-3.4c0-0.7,0.1-1.3,0.1-1.8c0-0.5-0.1-1-0.2-1.3
			C36.2,7.1,35.9,7,35.4,7c-0.4,0-0.8,0.1-1,0.4C34.1,7.6,33.9,8,33.7,8.5z M55.2,20.7c-2.3,0-3.4-0.9-3.4-2.6c0-0.5,0.1-1.1,0.3-2
			l0.5-2.6c0.5-2.4,0.8-3.9,0.8-4.4c0-1.1-0.3-1.6-1-1.6c-1.1,0-1.9,1.4-2.4,4.2l-1.7,8.5l-5.6,0.6l2.9-14.8l4.6-0.5L49.7,8
			c0.9-1.8,2.7-2.7,5.4-2.7c1.3,0,2.2,0.3,2.8,0.8c0.6,0.5,0.8,1.4,0.8,2.7c0,1.2-0.3,3.1-0.9,5.8c-0.3,1.2-0.4,2.1-0.4,2.5
			c0,0.4,0.1,0.8,0.4,1.1c0.3,0.3,0.6,0.4,1,0.4c-0.2,0.6-0.6,1.1-1.3,1.5C56.8,20.5,56.1,20.7,55.2,20.7z M62.9,8.4
			c0.6-0.9,1.4-1.6,2.4-2.2c1-0.6,2-0.9,3.2-0.9c1.2,0,2,0.2,2.6,0.6l5.5-0.6L74.7,16c-0.7,3.7-1.7,6.2-3.1,7.6
			c-1.3,1.4-3.3,2-5.9,2c-2,0-3.5-0.3-4.6-0.9c-1.1-0.6-1.7-1.4-1.7-2.5c0-0.8,0.3-1.4,0.9-1.8c0.6-0.4,1.3-0.6,2.2-0.6
			c0.8,0,1.5,0.2,2.1,0.5c0.4,0.2,0.6,0.4,0.8,0.7c-0.4,0.4-0.6,0.9-0.6,1.5c0,0.8,0.4,1.2,1.1,1.2c1.3,0,2.2-1.5,2.9-4.4
			c0.2-0.8,0.4-1.6,0.6-2.4c-0.8,1-2.2,1.5-4.1,1.5c-1.3,0-2.4-0.3-3.1-1c-0.8-0.6-1.1-1.7-1.1-3.2c0-0.9,0.2-1.9,0.5-3
			C61.8,10.3,62.3,9.3,62.9,8.4z M66.6,14.4c0,1.3,0.3,1.9,1,1.9c0.4,0,0.9-0.2,1.3-0.7c0.3-0.4,0.6-0.9,0.7-1.5L71,6.9
			c-0.1,0-0.2,0-0.3-0.1c-0.2-0.1-0.4-0.1-0.6-0.1c-1.1,0-2,0.9-2.7,2.8C66.8,11,66.6,12.6,66.6,14.4z M78.2,17.3
			c0-0.5,0.1-1.4,0.4-2.7L80,7.1h-1.7l0.1-0.8c2.2-0.7,4.4-1.8,6.6-3.5h1.3l-0.7,3H88l-0.3,1.3h-2.2l-1.4,7.5
			c-0.2,1.2-0.4,1.9-0.4,2.3c0,0.9,0.4,1.4,1.2,1.6c-0.2,0.6-0.6,1.1-1.3,1.5c-0.7,0.4-1.5,0.6-2.4,0.6c-1,0-1.7-0.3-2.2-0.9
			C78.4,19.2,78.2,18.3,78.2,17.3z M88.3,17.3c0-0.5,0.1-1.4,0.4-2.7l1.5-7.5h-1.7l0.1-0.8c2.2-0.7,4.4-1.8,6.6-3.5h1.3l-0.7,3h2.2
			l-0.3,1.3h-2.2l-1.4,7.5c-0.2,1.2-0.4,1.9-0.4,2.3c0,0.9,0.4,1.4,1.2,1.6c-0.2,0.6-0.6,1.1-1.3,1.5c-0.7,0.4-1.5,0.6-2.4,0.6
			c-1,0-1.7-0.3-2.2-0.9C88.6,19.2,88.3,18.3,88.3,17.3z M99.1,19.3c-0.4-0.5-0.7-1.1-1-1.9c-0.2-0.8-0.3-1.8-0.3-3
			c0-1.2,0.2-2.4,0.6-3.6c0.4-1.1,1-2.1,1.8-2.9c1.6-1.7,3.7-2.6,6.4-2.6c1,0,1.8,0.2,2.5,0.5l4.8-0.5l-2.1,10.9
			c-0.1,0.2-0.1,0.5-0.1,1c0,0.4,0.1,0.7,0.4,1c0.3,0.3,0.6,0.4,1,0.4c-0.2,0.6-0.6,1.1-1.3,1.5c-0.7,0.4-1.4,0.6-2.2,0.6
			c-0.8,0-1.4-0.1-1.9-0.4c-0.5-0.3-0.8-0.7-1-1.1c-0.3,0.5-0.8,0.8-1.4,1.1c-0.6,0.3-1.4,0.4-2.2,0.4c-0.8,0-1.6-0.1-2.3-0.3
			C100.1,20.1,99.5,19.7,99.1,19.3z M105,7.9c-0.2,0.3-0.4,0.8-0.6,1.4c-0.2,0.6-0.4,1.6-0.8,3.1c-0.3,1.5-0.4,2.8-0.4,3.9
			c0,1.1,0.1,1.8,0.3,2.1c0.2,0.3,0.4,0.5,0.7,0.5c0.6,0,1.1-0.3,1.5-0.8c0.4-0.6,0.8-1.4,0.9-2.4l1.5-8.2c-0.4-0.3-0.8-0.5-1.3-0.5
			c-0.4,0-0.8,0.1-1.1,0.2C105.4,7.3,105.2,7.6,105,7.9z M127.3,20.7c-2.3,0-3.4-0.9-3.4-2.6c0-0.5,0.1-1.1,0.3-2l0.5-2.6
			c0.5-2.4,0.8-3.9,0.8-4.4c0-1.1-0.3-1.6-1-1.6c-1.1,0-1.9,1.4-2.4,4.2l-1.7,8.5l-5.6,0.6l2.9-14.8l4.6-0.5L121.8,8
			c0.9-1.8,2.7-2.7,5.4-2.7c1.3,0,2.2,0.3,2.8,0.8c0.6,0.5,0.8,1.4,0.8,2.7c0,1.2-0.3,3.1-0.9,5.8c-0.3,1.2-0.4,2.1-0.4,2.5
			c0,0.4,0.1,0.8,0.4,1.1c0.3,0.3,0.6,0.4,1,0.4c-0.2,0.6-0.6,1.1-1.3,1.5C128.9,20.5,128.1,20.7,127.3,20.7z M135,8.4
			c0.6-0.9,1.4-1.6,2.4-2.2c1-0.6,2-0.9,3.2-0.9c1.2,0,2,0.2,2.6,0.6l5.5-0.6L146.8,16c-0.7,3.7-1.7,6.2-3.1,7.6
			c-1.3,1.4-3.3,2-5.9,2c-2,0-3.5-0.3-4.6-0.9c-1.1-0.6-1.7-1.4-1.7-2.5c0-0.8,0.3-1.4,0.9-1.8c0.6-0.4,1.3-0.6,2.2-0.6
			c0.8,0,1.5,0.2,2.1,0.5c0.4,0.2,0.6,0.4,0.8,0.7c-0.4,0.4-0.6,0.9-0.6,1.5c0,0.8,0.4,1.2,1.1,1.2c1.3,0,2.2-1.5,2.9-4.4
			c0.2-0.8,0.4-1.6,0.6-2.4c-0.8,1-2.2,1.5-4.1,1.5c-1.3,0-2.4-0.3-3.1-1c-0.8-0.6-1.1-1.7-1.1-3.2c0-0.9,0.2-1.9,0.5-3
			C133.9,10.3,134.4,9.3,135,8.4z M138.6,14.4c0,1.3,0.3,1.9,1,1.9c0.4,0,0.9-0.2,1.3-0.7c0.3-0.4,0.6-0.9,0.7-1.5l1.4-7.2
			c-0.1,0-0.2,0-0.3-0.1c-0.2-0.1-0.4-0.1-0.6-0.1c-1.1,0-2,0.9-2.7,2.8C138.9,11,138.6,12.6,138.6,14.4z M29.9,29.4
			c4.6,0,6.9,1.6,6.9,4.8c0,1.8-0.6,3.2-1.7,4.2c-1.1,1.1-2.7,1.6-4.6,1.6c-0.9,0-1.7-0.3-2.4-0.8c-0.3-0.2-0.6-0.5-0.8-0.8
			c1.4,0,2.4-0.4,3.1-1.2c0.7-0.8,1.1-2.1,1.1-3.7c0-1.6-0.8-2.4-2.4-2.4h-0.7c-0.1,0-0.2,0-0.3,0l-3.2,16.9h-6.1l3.4-18.3
			c2-0.2,3.6-0.3,4.7-0.3C28,29.4,29,29.4,29.9,29.4z M45.9,46.9c-0.9,1.2-2.5,1.7-4.7,1.7c-1.2,0-2.2-0.3-3-1
			c-0.8-0.7-1.3-1.6-1.3-2.6c0-0.6,0-1,0.1-1.3l1.9-10l5.7-0.6l-2,10.8c-0.1,0.4-0.1,0.7-0.1,1c0,1.1,0.3,1.6,1,1.6
			c0.7,0,1.4-0.5,1.9-1.5c0.2-0.3,0.3-0.7,0.4-1.1l2-10.3l5.5-0.6l-2.1,10.9C51,44.4,51,44.7,51,45c0,0.3,0.1,0.6,0.3,1
			c0.2,0.3,0.5,0.5,1.1,0.6c-0.1,0.4-0.4,0.8-0.8,1.1c-0.8,0.6-1.7,1-2.6,1c-0.9,0-1.6-0.2-2.1-0.5C46.4,47.8,46,47.4,45.9,46.9z
			 M63.4,33.2c0.7,0,1.3,0.1,1.8,0.2c0-0.1,0-0.2,0.1-0.4l0.1-0.9c0.1-0.4,0.2-0.9,0.3-1.5l0.4-2.2l5.6-0.6l-3.1,16.2
			c0,0.1,0,0.3,0,0.4V45c0,0.4,0.1,0.8,0.3,1.1c0.2,0.3,0.5,0.4,0.8,0.4c-0.4,0.9-1.1,1.5-2.3,1.9c-0.4,0.1-0.9,0.2-1.4,0.2
			c-0.5,0-1.1-0.1-1.6-0.4c-0.5-0.3-0.8-0.7-1-1.1c-0.3,0.5-0.7,0.9-1.3,1.1c-0.6,0.3-1.3,0.4-2.2,0.4c-0.9,0-1.7-0.1-2.4-0.3
			c-0.7-0.2-1.3-0.6-1.7-1.1c-0.8-1-1.2-2.5-1.2-4.7c0-2.8,0.8-5,2.5-6.7C58.6,34.1,60.8,33.2,63.4,33.2z M63.2,34.9
			c-0.7,0-1.2,0.4-1.6,1.1c-0.4,0.7-0.8,2-1.1,3.9c-0.4,1.8-0.6,3.6-0.6,5.3c0,1.1,0.3,1.7,1,1.7c0.6,0,1.1-0.3,1.5-0.9
			c0.4-0.6,0.7-1.4,0.9-2.4l1.5-8.2C64.4,35.1,63.9,34.9,63.2,34.9z M80.9,33.2c0.7,0,1.3,0.1,1.8,0.2c0-0.1,0-0.2,0.1-0.4l0.1-0.9
			c0.1-0.4,0.2-0.9,0.3-1.5l0.4-2.2l5.6-0.6l-3.1,16.2c0,0.1,0,0.3,0,0.4V45c0,0.4,0.1,0.8,0.3,1.1c0.2,0.3,0.5,0.4,0.8,0.4
			c-0.4,0.9-1.1,1.5-2.3,1.9c-0.4,0.1-0.9,0.2-1.4,0.2c-0.5,0-1.1-0.1-1.6-0.4c-0.5-0.3-0.8-0.7-1-1.1c-0.3,0.5-0.7,0.9-1.3,1.1
			c-0.6,0.3-1.3,0.4-2.2,0.4c-0.9,0-1.7-0.1-2.4-0.3c-0.7-0.2-1.3-0.6-1.7-1.1c-0.8-1-1.2-2.5-1.2-4.7c0-2.8,0.8-5,2.5-6.7
			C76.1,34.1,78.3,33.2,80.9,33.2z M80.7,34.9c-0.7,0-1.2,0.4-1.6,1.1c-0.4,0.7-0.8,2-1.1,3.9c-0.4,1.8-0.6,3.6-0.6,5.3
			c0,1.1,0.3,1.7,1,1.7c0.6,0,1.1-0.3,1.5-0.9c0.4-0.6,0.7-1.4,0.9-2.4l1.5-8.2C81.9,35.1,81.4,34.9,80.7,34.9z M96.3,46.5
			c-0.6,1.4-1.8,2.1-3.6,2.1c-1,0-1.7-0.3-2.3-1c-0.5-0.6-0.8-1.2-0.8-1.7c0-1.5,0.3-3.7,1-6.7l1-5.4l5.7-0.6l-1.7,8.8
			c-0.3,1.4-0.5,2.3-0.5,2.8C95.1,45.9,95.5,46.5,96.3,46.5z M92.1,29.9c0-0.7,0.3-1.3,0.9-1.7c0.6-0.4,1.4-0.6,2.2-0.6
			c0.9,0,1.6,0.2,2.1,0.6c0.5,0.4,0.8,1,0.8,1.7s-0.3,1.3-0.9,1.6c-0.6,0.4-1.3,0.6-2.2,0.6c-0.9,0-1.6-0.2-2.2-0.6
			C92.4,31.2,92.1,30.6,92.1,29.9z M110.5,48.6c-2.3,0-3.4-0.9-3.4-2.6c0-0.5,0.1-1.1,0.3-2l0.5-2.6c0.5-2.4,0.8-3.9,0.8-4.4
			c0-1.1-0.3-1.6-1-1.6c-1.1,0-1.9,1.4-2.4,4.2l-1.7,8.5L98,48.6l2.9-14.8l4.6-0.5L105,36c0.9-1.8,2.7-2.7,5.4-2.7
			c1.3,0,2.2,0.3,2.8,0.8c0.6,0.5,0.8,1.4,0.8,2.7c0,1.2-0.3,3.1-0.9,5.8c-0.3,1.2-0.4,2-0.4,2.5c0,0.4,0.1,0.8,0.4,1.1
			c0.3,0.3,0.6,0.4,1,0.4c-0.2,0.6-0.6,1.1-1.3,1.5C112.1,48.4,111.4,48.6,110.5,48.6z M118.2,36.4c0.6-0.9,1.4-1.6,2.4-2.2
			c1-0.6,2-0.9,3.2-0.9c1.2,0,2,0.2,2.6,0.6l5.5-0.6L130,44c-0.7,3.7-1.7,6.2-3.1,7.6c-1.3,1.4-3.3,2-5.9,2c-2,0-3.5-0.3-4.6-0.9
			c-1.1-0.6-1.7-1.4-1.7-2.5c0-0.8,0.3-1.4,0.9-1.8c0.6-0.4,1.3-0.6,2.2-0.6c0.8,0,1.5,0.2,2.1,0.5c0.4,0.2,0.6,0.4,0.8,0.7
			c-0.4,0.4-0.6,0.9-0.6,1.5c0,0.8,0.4,1.2,1.1,1.2c1.3,0,2.2-1.5,2.9-4.4c0.2-0.8,0.4-1.6,0.6-2.4c-0.8,1-2.2,1.5-4.1,1.5
			c-1.3,0-2.4-0.3-3.1-1c-0.8-0.6-1.1-1.7-1.1-3.2c0-0.9,0.2-1.9,0.5-3C117.1,38.2,117.6,37.3,118.2,36.4z M121.9,42.4
			c0,1.3,0.3,1.9,1,1.9c0.4,0,0.9-0.2,1.3-0.7c0.3-0.4,0.6-0.9,0.7-1.5l1.4-7.2c-0.1,0-0.2,0-0.3-0.1c-0.2-0.1-0.4-0.1-0.6-0.1
			c-1.1,0-2,0.9-2.7,2.8C122.1,38.9,121.9,40.6,121.9,42.4z"/>
	</g>
</g>
</svg>
